<?xml version="1.0" standalone="no"?>
<!DOCTYPE svg PUBLIC "-//W3C//DTD SVG 20010904//EN"
 "http://www.w3.org/TR/2001/REC-SVG-20010904/DTD/svg10.dtd">
<svg version="1.0" xmlns="http://www.w3.org/2000/svg"
 width="700.000000pt" height="700.000000pt" viewBox="0 0 700.000000 700.000000"
 preserveAspectRatio="xMidYMid meet">
<metadata>
Created by potrace 1.14, written by Peter Selinger 2001-2017
</metadata>
<g transform="translate(0.000000,700.000000) scale(0.100000,-0.100000)"
fill="#000000" stroke="none">
<path d="M4385 6061 c-72 -18 -135 -69 -165 -134 -10 -23 -96 -235 -190 -472
-94 -236 -175 -439 -180 -450 -5 -11 -23 -56 -40 -100 -17 -44 -35 -89 -40
-100 -5 -11 -77 -191 -160 -400 -83 -209 -155 -389 -160 -400 -5 -11 -77 -191
-160 -400 -83 -209 -155 -389 -160 -400 -5 -11 -41 -101 -80 -200 -39 -99 -78
-194 -86 -212 -7 -17 -14 -34 -14 -38 0 -4 -7 -21 -15 -38 -7 -18 -32 -79 -55
-137 -22 -58 -45 -114 -50 -125 -5 -11 -52 -130 -106 -265 -53 -135 -102 -258
-109 -275 -7 -16 -54 -133 -104 -260 -50 -126 -96 -239 -101 -250 -95 -201
-97 -307 -7 -403 61 -64 180 -85 263 -46 65 31 127 116 149 207 4 15 11 30 16
33 5 3 9 12 9 20 0 8 9 33 19 57 11 23 52 123 91 222 39 99 75 189 80 200 5
11 149 371 320 800 171 429 315 789 320 800 5 11 75 187 156 390 80 204 152
384 159 400 7 17 43 107 80 200 37 94 73 184 80 200 7 17 43 107 80 200 37 94
73 184 80 200 8 17 27 66 45 110 17 44 37 94 45 112 8 17 15 34 15 38 0 4 6
21 14 38 8 18 53 131 101 252 48 121 96 239 106 262 54 122 41 230 -38 305
-52 49 -142 75 -208 59z"/>
<path d="M1570 4658 c-19 -5 -49 -21 -67 -34 -18 -13 -249 -240 -513 -504
-521 -519 -525 -524 -521 -624 1 -27 10 -68 20 -90 23 -52 981 -1016 1038
-1044 117 -59 255 -14 315 102 27 52 29 148 4 200 -10 22 -183 203 -416 437
l-399 400 394 394 c249 249 402 409 415 436 60 117 6 264 -115 315 -48 20
-108 25 -155 12z"/>
<path d="M5280 4648 c-92 -39 -143 -115 -143 -213 -1 -38 6 -74 18 -99 12 -26
163 -184 417 -438 l399 -398 -398 -397 c-259 -259 -405 -412 -418 -438 -26
-56 -25 -147 3 -201 56 -109 173 -153 301 -112 48 15 1024 991 1052 1051 25
55 24 139 -1 195 -25 55 -986 1018 -1042 1045 -55 26 -134 28 -188 5z"/>
</g>
</svg>
