<svg width="500" height="507" viewBox="0 0 500 507" fill="none" xmlns="http://www.w3.org/2000/svg">
<path d="M316.182 81.1168L316.153 81.1275L316.124 81.1388C302.318 86.5175 291.628 95.2603 284.225 107.352L223.677 206.243C221.863 209.207 219.141 211.524 216.306 212.633C213.539 213.716 210.84 213.613 208.497 212.138C206.533 210.901 205.209 209.589 204.358 208.26C202.543 205.424 202.394 201.593 205.955 195.777L261.513 105.035C268.178 94.1495 277.422 84.9755 289.337 77.5255C301.18 70.2194 314.378 65.2739 328.971 62.7096C343.53 60.1513 357.919 60.4424 372.17 63.5762C386.453 66.7171 397.517 71.944 405.607 79.0702C413.564 86.3218 417.904 94.7194 418.886 104.361C419.87 114.01 417.241 124.232 410.566 135.135L350.019 234.026C348.204 236.989 345.488 239.302 342.648 240.417C339.874 241.507 337.145 241.421 334.762 239.964C332.674 238.687 331.293 237.337 330.426 235.983L330.419 235.972L330.411 235.96C328.755 233.411 328.565 229.654 332.296 223.561L387.854 132.818C395.247 120.744 396.897 109.08 391.409 98.4816L391.406 98.4758C386.068 88.2096 375.142 81.7786 359.999 78.4486C344.716 75.0877 330.075 75.9498 316.182 81.1168Z" fill="#030712" stroke="#020617" stroke-width="8"/>
<path d="M180.232 433.52L180.263 433.51L180.295 433.5C194.139 428.93 204.98 420.645 212.652 408.692L274.789 311.872C276.757 308.805 279.729 306.48 282.742 305.486C285.671 304.519 288.428 304.841 290.681 306.64C292.314 307.944 293.455 309.285 294.209 310.638C296.027 313.897 295.956 317.98 292.306 323.667L234.838 413.212C227.953 423.94 218.592 432.702 206.668 439.496C194.816 446.148 181.701 450.278 167.278 451.859C152.891 453.437 138.742 452.097 124.798 447.834C110.829 443.563 100.056 437.368 92.2567 429.393C84.5803 421.285 80.5039 412.22 79.8156 402.102C79.1278 391.991 82.0513 381.611 88.9441 370.871L151.082 274.051C153.05 270.984 156.014 268.662 159.033 267.661C161.972 266.687 164.763 266.994 167.061 268.777C168.803 270.13 169.997 271.514 170.77 272.899L170.776 272.91L170.782 272.922C172.456 275.878 172.42 279.892 168.599 285.846L111.13 375.391C103.458 387.346 101.565 399.158 106.577 410.303L106.58 410.308C111.468 421.134 121.953 428.551 136.827 433.099C151.805 437.678 166.312 437.862 180.232 433.52Z" fill="#030712" stroke="#020617" stroke-width="8"/>
<path d="M307.583 264.545L307.665 264.556L307.748 264.563L408.04 273.612C408.164 273.624 408.277 273.657 408.368 273.701C408.383 273.708 408.397 273.715 408.41 273.722C408.159 275.008 407.682 276.29 406.947 277.58C406.028 279.191 404.873 280.342 403.479 281.141C402.251 281.846 400.965 282.084 399.453 281.832L399.343 281.814L399.231 281.801L336.025 274.863C328.191 274.003 323.113 282.915 327.848 289.216L366.147 340.18L366.18 340.224L366.214 340.268C367.401 341.759 367.895 343.081 367.99 344.271C368.037 345.717 367.692 347.134 366.863 348.588C366.165 349.813 365.198 350.937 363.908 351.957C363.862 351.945 363.793 351.918 363.714 351.865C363.624 351.805 363.535 351.722 363.459 351.618L304.572 270.12L304.525 270.055L304.476 269.992C303.748 269.065 303.528 268.38 303.481 267.914C303.437 267.474 303.513 266.899 303.971 266.095C304.43 265.291 304.887 264.933 305.288 264.747C305.713 264.549 306.414 264.39 307.583 264.545Z" fill="#030712" stroke="#020617" stroke-width="8"/>
<path d="M196.895 244.824L196.812 244.824L196.729 244.828L96.1285 249.293C96.004 249.299 95.888 249.281 95.7921 249.25C95.776 249.245 95.7611 249.239 95.7474 249.234C95.8235 247.927 96.1243 246.592 96.6802 245.216C97.375 243.496 98.3653 242.201 99.6397 241.222L97.2028 238.05L99.6397 241.222C100.763 240.359 102.005 239.95 103.537 239.998L103.649 240.001L103.761 239.998L167.327 238.408C175.206 238.211 179.044 228.699 173.508 223.089L128.728 177.714L128.689 177.675L128.649 177.637C127.273 176.317 126.607 175.073 126.353 173.907C126.113 172.48 126.265 171.03 126.892 169.478C127.42 168.171 128.227 166.927 129.37 165.744C129.417 165.75 129.488 165.767 129.574 165.809C129.671 165.856 129.77 165.926 129.859 166.019L199.132 238.896L199.187 238.954L199.244 239.009C200.09 239.831 200.4 240.48 200.508 240.936C200.611 241.365 200.613 241.946 200.266 242.804C199.92 243.662 199.515 244.078 199.142 244.316C198.748 244.569 198.074 244.821 196.895 244.824Z" fill="#030712" stroke="#020617" stroke-width="8"/>
<path d="M280.757 199.144L280.779 199.11L280.8 199.076C281.714 197.574 282.841 196.581 284.197 195.954C285.818 195.272 287.509 195.022 289.335 195.214C290.521 195.339 291.215 195.959 291.539 197.332C291.91 198.907 291.587 201.114 290.399 202.972L218.892 314.796C217.841 316.359 216.611 317.39 215.203 318.031L215.154 318.053L215.106 318.076C213.819 318.704 212.314 318.981 210.466 318.787C209.315 318.666 208.644 318.078 208.336 316.684C207.982 315.077 208.335 312.821 209.54 310.929L280.757 199.144Z" fill="#030712" stroke="#020617" stroke-width="8"/>
</svg>
